<svg xmlns="http://www.w3.org/2000/svg" viewBox="0 0 24 24" width="24" height="24">
    <!-- The activity bar masks the alpha channel with the theme's icon
         color, so only the flame + impact ripples are opaque. -->
    <g transform="translate(2.6 -0.6) scale(0.78)">
        <path fill="currentColor" d="M13.2 1.6c.5 2.9-.2 5-1.6 6.7-1.2 1.5-2.9 2.6-4 4.2A7.6 7.6 0 0 0 6.2 17a6.4 6.4 0 0 0 12.7-1.2c0-2.5-1.2-4.3-2.4-5.9-.5 1.2-1.2 2-2.2 2.7.4-3.4-.3-7.6-1.1-11zm-1 8.5c.6 2.7.6 5-.3 6.6-.5.9-1.3 1.6-2.4 2.1a4.4 4.4 0 0 1-1.3-3c0-1.6.8-2.8 1.9-4 .7-.6 1.4-1.2 2.1-1.7z"/>
    </g>
    <path fill="none" stroke="currentColor" stroke-width="1.5" stroke-linecap="round" d="M6.6 18.9q5.4 3.4 10.8 0"/>
    <path fill="none" stroke="currentColor" stroke-width="1.5" stroke-linecap="round" d="M3.5 21.2q8.5 4.2 17 0"/>
</svg>
